<svg xmlns="http://www.w3.org/2000/svg" xmlns:xlink="http://www.w3.org/1999/xlink" width="1920" zoomAndPan="magnify" viewBox="0 0 1440 1439.999935" height="1920" preserveAspectRatio="xMidYMid meet" version="1.0"><defs><g/><clipPath id="48c4c6b5b0"><path d="M 0 0 L 1440 0 L 1440 1440 L 0 1440 Z M 0 0 " clip-rule="nonzero"/></clipPath><clipPath id="81a861215b"><rect x="0" width="1440" y="0" height="1440"/></clipPath><clipPath id="5cc660f900"><path d="M 281.660156 0 L 1440 0 L 1440 1440 L 281.660156 1440 Z M 281.660156 0 " clip-rule="nonzero"/></clipPath><clipPath id="dc80c00a3f"><path d="M 1166.699219 -165.039062 C 677.90625 -165.039062 281.660156 231.207031 281.660156 720 C 281.660156 1208.792969 677.90625 1605.039062 1166.699219 1605.039062 C 1655.492188 1605.039062 2051.738281 1208.792969 2051.738281 720 C 2051.738281 231.207031 1655.492188 -165.039062 1166.699219 -165.039062 Z M 1166.699219 -165.039062 " clip-rule="nonzero"/></clipPath><clipPath id="8c14180297"><path d="M 0.660156 0 L 1159 0 L 1159 1440 L 0.660156 1440 Z M 0.660156 0 " clip-rule="nonzero"/></clipPath><clipPath id="ead700089b"><path d="M 885.699219 -165.039062 C 396.90625 -165.039062 0.660156 231.207031 0.660156 720 C 0.660156 1208.792969 396.90625 1605.039062 885.699219 1605.039062 C 1374.492188 1605.039062 1770.738281 1208.792969 1770.738281 720 C 1770.738281 231.207031 1374.492188 -165.039062 885.699219 -165.039062 Z M 885.699219 -165.039062 " clip-rule="nonzero"/></clipPath><clipPath id="6fb89f2e68"><rect x="0" width="1159" y="0" height="1440"/></clipPath><clipPath id="7be55ccb87"><path d="M 0 0 L 1166.699219 0 L 1166.699219 1125.496094 L 0 1125.496094 Z M 0 0 " clip-rule="nonzero"/></clipPath><clipPath id="ce91ceeb5e"><path d="M 346.746094 -514.40625 C -106.097656 -514.40625 -473.203125 -147.300781 -473.203125 305.546875 C -473.203125 758.390625 -106.097656 1125.496094 346.746094 1125.496094 C 799.59375 1125.496094 1166.699219 758.390625 1166.699219 305.546875 C 1166.699219 -147.300781 799.59375 -514.40625 346.746094 -514.40625 Z M 346.746094 -514.40625 " clip-rule="nonzero"/></clipPath><clipPath id="2d7b096cf6"><path d="M 0 0 L 1166.699219 0 L 1166.699219 1125.496094 L 0 1125.496094 Z M 0 0 " clip-rule="nonzero"/></clipPath><clipPath id="10722a4455"><path d="M 346.746094 -514.40625 C -106.097656 -514.40625 -473.203125 -147.300781 -473.203125 305.546875 C -473.203125 758.390625 -106.097656 1125.496094 346.746094 1125.496094 C 799.59375 1125.496094 1166.699219 758.390625 1166.699219 305.546875 C 1166.699219 -147.300781 799.59375 -514.40625 346.746094 -514.40625 Z M 346.746094 -514.40625 " clip-rule="nonzero"/></clipPath><clipPath id="e51f919ca0"><rect x="0" width="1167" y="0" height="1126"/></clipPath></defs><rect x="-144" width="1728" fill="#ffffff" y="-143.999994" height="1727.999922" fill-opacity="1"/><rect x="-144" width="1728" fill="#ffffff" y="-143.999994" height="1727.999922" fill-opacity="1"/><g transform="matrix(1, 0, 0, 1, 0, -0.000000000000101068)"><g clip-path="url(#81a861215b)"><g clip-path="url(#48c4c6b5b0)"><rect x="-316.8" width="2073.6" fill="#e2e2e2" height="2073.599906" y="-316.799986" fill-opacity="1"/></g></g></g><g clip-path="url(#5cc660f900)"><g clip-path="url(#dc80c00a3f)"><g transform="matrix(1, 0, 0, 1, 281, -0.000000000000101068)"><g clip-path="url(#6fb89f2e68)"><g clip-path="url(#8c14180297)"><g clip-path="url(#ead700089b)"><path fill="#d9d9d9" d="M 0.660156 -165.039062 L 1770.738281 -165.039062 L 1770.738281 1605.039062 L 0.660156 1605.039062 Z M 0.660156 -165.039062 " fill-opacity="1" fill-rule="nonzero"/></g></g></g></g></g></g><g clip-path="url(#7be55ccb87)"><g clip-path="url(#ce91ceeb5e)"><g transform="matrix(1, 0, 0, 1, 0, -0.000000000000101068)"><g clip-path="url(#e51f919ca0)"><g clip-path="url(#2d7b096cf6)"><g clip-path="url(#10722a4455)"><path fill="#a6a6a6" d="M -473.203125 -514.40625 L 1166.699219 -514.40625 L 1166.699219 1125.496094 L -473.203125 1125.496094 Z M -473.203125 -514.40625 " fill-opacity="1" fill-rule="nonzero"/></g></g></g></g></g></g><g fill="#000000" fill-opacity="1"><g transform="translate(371.932618, 921.623046)"><g><path d="M 173.015625 0 L 75.234375 0 L 75.234375 -45.09375 L 169.75 -45.09375 C 202.707031 -45.09375 230.050781 -51.425781 251.78125 -64.09375 C 273.507812 -76.769531 289.710938 -94.921875 300.390625 -118.546875 C 311.078125 -142.179688 316.421875 -170.382812 316.421875 -203.15625 C 316.421875 -235.570312 311.125 -263.457031 300.53125 -286.8125 C 289.9375 -310.175781 274.179688 -328.148438 253.265625 -340.734375 C 232.359375 -353.316406 206.148438 -359.609375 174.640625 -359.609375 L 73.0625 -359.609375 L 73.0625 -404.6875 L 178.171875 -404.6875 C 217.648438 -404.6875 251.375 -396.628906 279.34375 -380.515625 C 307.320312 -364.398438 328.78125 -341.269531 343.71875 -311.125 C 358.65625 -280.976562 366.125 -244.988281 366.125 -203.15625 C 366.125 -160.96875 358.609375 -124.707031 343.578125 -94.375 C 328.546875 -64.050781 306.632812 -40.738281 277.84375 -24.4375 C 249.0625 -8.144531 214.117188 0 173.015625 0 Z M 98.046875 -404.6875 L 98.046875 0 L 46.984375 0 L 46.984375 -404.6875 Z M 98.046875 -404.6875 "/></g></g><g transform="translate(769.294589, 921.623046)"><g><path d="M 15.484375 0 L 135.265625 -172.203125 L 134.984375 -135.265625 L 21.734375 -299.859375 L 78.21875 -299.859375 L 116.25 -241.453125 C 125.476562 -227.148438 133.710938 -213.613281 140.953125 -200.84375 C 148.203125 -188.082031 155.628906 -175.632812 163.234375 -163.5 L 138.25 -163.5 C 146.03125 -175.632812 153.269531 -188.082031 159.96875 -200.84375 C 166.675781 -213.613281 174.738281 -227.148438 184.15625 -241.453125 L 222.984375 -299.859375 L 278.390625 -299.859375 L 164.59375 -133.625 L 164.59375 -169.484375 L 283.28125 0 L 227.0625 0 L 182.25 -67.625 C 173.195312 -81.570312 165.140625 -94.703125 158.078125 -107.015625 C 151.015625 -119.328125 143.769531 -131.273438 136.34375 -142.859375 L 161.609375 -142.859375 C 154.179688 -131.273438 147.160156 -119.328125 140.546875 -107.015625 C 133.941406 -94.703125 126.023438 -81.570312 116.796875 -67.625 L 71.4375 0 Z M 15.484375 0 "/></g></g></g></svg>